[Header]
FileType HTR
DataType HTRS
FileVersion 1
NumSegments 64
NumFrames 3
DataFrameRate 24
EulerRotationOrder ZYX
CalibrationUnits mm
RotationUnits Degrees
GlobalAxisofGravity Y
BoneLengthAxis Y
ScaleFactor 1.0
[SegmentNames&Hierarchy]
Hips	GLOBAL
Spine	Hips
Spine1	Spine
Spine2	Spine1
Neck	Spine2
Head	Neck
LeftEye	Head
RightEye	Head
LeftShoulder	Spine2
LeftArm	LeftShoulder
LeftForeArm	LeftArm
LeftHand	LeftForeArm
LeftHandThumb1	LeftHand
LeftHandThumb2	LeftHandThumb1
LeftHandThumb3	LeftHandThumb2
LeftHandThumb4	LeftHandThumb3
LeftHandIndex1	LeftHand
LeftHandIndex2	LeftHandIndex1
LeftHandIndex3	LeftHandIndex2
LeftHandIndex4	LeftHandIndex3
LeftHandMiddle1	LeftHand
LeftHandMiddle2	LeftHandMiddle1
LeftHandMiddle3	LeftHandMiddle2
LeftHandMiddle4	LeftHandMiddle3
LeftHandRing1	LeftHand
LeftHandRing2	LeftHandRing1
LeftHandRing3	LeftHandRing2
LeftHandRing4	LeftHandRing3
LeftHandPinky1	LeftHand
LeftHandPinky2	LeftHandPinky1
LeftHandPinky3	LeftHandPinky2
LeftHandPinky4	LeftHandPinky3
RightShoulder	Spine2
RightArm	RightShoulder
RightForeArm	RightArm
RightHand	RightForeArm
RightHandPinky1	RightHand
RightHandPinky2	RightHandPinky1
RightHandPinky3	RightHandPinky2
RightHandPinky4	RightHandPinky3
RightHandRing1	RightHand
RightHandRing2	RightHandRing1
RightHandRing3	RightHandRing2
RightHandRing4	RightHandRing3
RightHandMiddle1	RightHand
RightHandMiddle2	RightHandMiddle1
RightHandMiddle3	RightHandMiddle2
RightHandMiddle4	RightHandMiddle3
RightHandIndex1	RightHand
RightHandIndex2	RightHandIndex1
RightHandIndex3	RightHandIndex2
RightHandIndex4	RightHandIndex3
RightHandThumb1	RightHand
RightHandThumb2	RightHandThumb1
RightHandThumb3	RightHandThumb2
RightHandThumb4	RightHandThumb3
LeftUpLeg	Hips
LeftLeg	LeftUpLeg
LeftFoot	LeftLeg
LeftToeBase	LeftFoot
RightUpLeg	Hips
RightLeg	RightUpLeg
RightFoot	RightLeg
RightToeBase	RightFoot
[BasePosition]
Hips	0	0	0	0	0	0	1
Spine	0	0	0	0	0	0	1
Spine1	0	0	0	0	0	0	1
Spine2	0	0	0	0	0	0	1
Neck	0	0	0	0	0	0	1
Head	0	0	0	0	0	0	1
LeftEye	0	0	0	0	0	0	1
RightEye	0	0	0	0	0	0	1
LeftShoulder	0	0	0	0	0	0	1
LeftArm	0	0	0	0	0	0	1
LeftForeArm	0	0	0	0	0	0	1
LeftHand	0	0	0	0	0	0	1
LeftHandThumb1	0	0	0	0	0	0	1
LeftHandThumb2	0	0	0	0	0	0	1
LeftHandThumb3	0	0	0	0	0	0	1
LeftHandThumb4	0	0	0	0	0	0	1
LeftHandIndex1	0	0	0	0	0	0	1
LeftHandIndex2	0	0	0	0	0	0	1
LeftHandIndex3	0	0	0	0	0	0	1
LeftHandIndex4	0	0	0	0	0	0	1
LeftHandMiddle1	0	0	0	0	0	0	1
LeftHandMiddle2	0	0	0	0	0	0	1
LeftHandMiddle3	0	0	0	0	0	0	1
LeftHandMiddle4	0	0	0	0	0	0	1
LeftHandRing1	0	0	0	0	0	0	1
LeftHandRing2	0	0	0	0	0	0	1
LeftHandRing3	0	0	0	0	0	0	1
LeftHandRing4	0	0	0	0	0	0	1
LeftHandPinky1	0	0	0	0	0	0	1
LeftHandPinky2	0	0	0	0	0	0	1
LeftHandPinky3	0	0	0	0	0	0	1
LeftHandPinky4	0	0	0	0	0	0	1
RightShoulder	0	0	0	0	0	0	1
RightArm	0	0	0	0	0	0	1
RightForeArm	0	0	0	0	0	0	1
RightHand	0	0	0	0	0	0	1
RightHandPinky1	0	0	0	0	0	0	1
RightHandPinky2	0	0	0	0	0	0	1
RightHandPinky3	0	0	0	0	0	0	1
RightHandPinky4	0	0	0	0	0	0	1
RightHandRing1	0	0	0	0	0	0	1
RightHandRing2	0	0	0	0	0	0	1
RightHandRing3	0	0	0	0	0	0	1
RightHandRing4	0	0	0	0	0	0	1
RightHandMiddle1	0	0	0	0	0	0	1
RightHandMiddle2	0	0	0	0	0	0	1
RightHandMiddle3	0	0	0	0	0	0	1
RightHandMiddle4	0	0	0	0	0	0	1
RightHandIndex1	0	0	0	0	0	0	1
RightHandIndex2	0	0	0	0	0	0	1
RightHandIndex3	0	0	0	0	0	0	1
RightHandIndex4	0	0	0	0	0	0	1
RightHandThumb1	0	0	0	0	0	0	1
RightHandThumb2	0	0	0	0	0	0	1
RightHandThumb3	0	0	0	0	0	0	1
RightHandThumb4	0	0	0	0	0	0	1
LeftUpLeg	0	0	0	0	0	0	1
LeftLeg	0	0	0	0	0	0	1
LeftFoot	0	0	0	0	0	0	1
LeftToeBase	0	0	0	0	0	0	1
RightUpLeg	0	0	0	0	0	0	1
RightLeg	0	0	0	0	0	0	1
RightFoot	0	0	0	0	0	0	1
RightToeBase	0	0	0	0	0	0	1
[Hips]
47	11.31939125	1024.321777	-6.211949348	-1.861362815	-2.694833279	-4.40286541	1.0
48	10.42365265	1028.604614	-1.955150366	-2.437348127	-3.847406387	-4.122972012	1.0
49	9.254152298	1031.187744	2.064449549	-2.762758732	-4.696430206	-3.842687845	1.0
[Spine]
47	0	101.8159943	1.315000057	4.16797924	2.59846735	3.029952765	1.0
48	0	101.8159943	1.315000057	3.99834156	2.312388897	3.01367569	1.0
49	0	101.8159943	1.315000057	3.773537636	2.158509731	2.972277403	1.0
[Spine1]
47	0	100.8349991	-10.00800037	1.359132528	0.625	1.61187005	1.0
48	0	100.8349991	-10.00800037	1.319661021	0.5662235022	1.607904553	1.0
49	0	100.8349991	-10.00800037	1.26441884	0.5398582816	1.597267628	1.0
[Spine2]
47	0	91	-13.73399925	1.331532001	0.6517537832	1.614350438	1.0
48	0	91	-13.73399925	1.293096066	0.5916198492	1.609710574	1.0
49	0	91	-13.73399925	1.238484025	0.5640698075	1.598811507	1.0
[Neck]
47	0	166.7169952	-25.16200066	5.97726059	-0.7809793949	0.2181822658	1.0
48	0	166.7169952	-25.16200066	6.019481182	-0.5717369318	0.3763260841	1.0
49	0	166.7169952	-25.16200066	5.975833893	-0.430881381	0.4484072328	1.0
[Head]
47	0	96.17900085	16.84999847	-8.161757469	-2.407263279	2.279972076	1.0
48	0	96.17900085	16.84999847	-7.749677181	-0.9618090391	1.249413371	1.0
49	0	96.17900085	16.84999847	-7.381880283	-0.03119261563	0.5866276622	1.0
[LeftEye]
47	30.6760006	64.09500122	92.83599854	0	0	0	1.0
48	30.6760006	64.09500122	92.83599854	0	0	0	1.0
49	30.6760006	64.09500122	92.83599854	0	0	0	1.0
[RightEye]
47	-30.6760006	64.09500122	92.83499908	0	0	0	1.0
48	-30.6760006	64.09500122	92.83499908	0	0	0	1.0
49	-30.6760006	64.09500122	92.83499908	0	0	0	1.0
[LeftShoulder]
47	45.70400238	109.4599991	-26.28000069	4.864548206	-17.34399986	-12.60957909	1.0
48	45.70400238	109.4599991	-26.28000069	4.852116585	-17.3448925	-12.59789085	1.0
49	45.70400238	109.4599991	-26.28000069	4.853662014	-17.1926384	-12.70047569	1.0
[LeftArm]
47	105.923996	-5.24600029	-22.32099915	23.14928627	-5.148566246	-65.4777298	1.0
48	105.923996	-5.24600029	-22.32099915	22.78826141	-4.737518311	-66.21777344	1.0
49	105.923996	-5.24600029	-22.32099915	22.58036613	-4.350296974	-67.22042847	1.0
[LeftForeArm]
47	278.414978	-0.0009999999311	0	4.415751846e-06	-16.92938614	-0.0002088100155	1.0
48	278.414978	-0.0009999999311	0	1.301933253e-06	-13.55814075	-0.0002172508684	1.0
49	278.414978	-0.0009999999311	0	6.229527685e-07	-10.20205593	-0.0002129119821	1.0
[LeftHand]
47	283.2879944	0	0	-30.97127151	-4.20712471	-0.1447845697	1.0
48	283.2879944	0	0	-30.27098846	-3.955310583	-0.5263291597	1.0
49	283.2879944	0	0	-30.87387848	-3.867251635	-1.973155975	1.0
[LeftHandThumb1]
47	24.6609993	-15.75	26.8239994	-0.4889809787	2.201396465	4.818552017	1.0
48	24.6609993	-15.75	26.8239994	-0.4889815152	2.201391935	4.818576813	1.0
49	24.6609993	-15.75	26.8239994	-0.4889835715	2.201390266	4.818572998	1.0
[LeftHandThumb2]
47	32.29800034	-18.64699936	18.64699936	19.85847855	20.84236145	22.67024612	1.0
48	32.29800034	-18.64699936	18.64699936	20.09414101	20.15508461	23.04174042	1.0
49	32.29800034	-18.64699936	18.64699936	20.11187363	19.71563339	23.16449356	1.0
[LeftHandThumb3]
47	26.52600098	-15.31499958	15.31499958	-13.13036442	5.65181303	7.979642868	1.0
48	26.52600098	-15.31499958	15.31499958	-13.16373634	5.458991051	8.006108284	1.0
49	26.52600098	-15.31499958	15.31499958	-13.16795349	5.419859409	7.984042645	1.0
[LeftHandThumb4]
47	19.54599953	-11.28499985	11.28499985	0	0	0	1.0
48	19.54599953	-11.28499985	11.28499985	0	0	0	1.0
49	19.54599953	-11.28499985	11.28499985	0	0	0	1.0
[LeftHandIndex1]
47	91.09299469	-5.170999527	22.60099792	0.2012488842	-0.392724216	-9.35773468	1.0
48	91.09299469	-5.170999527	22.60099792	0.1108990237	-0.8855799437	-8.316098213	1.0
49	91.09299469	-5.170999527	22.60099792	0.1079727858	-1.020201683	-7.791377068	1.0
[LeftHandIndex2]
47	36.76399994	0	0	-0.2656026483	1.741666913	-17.3404541	1.0
48	36.76399994	0	0	-0.2657565475	1.742162585	-17.34557152	1.0
49	36.76399994	0	0	-0.2662047744	1.743585587	-17.3601799	1.0
[LeftHandIndex3]
47	28.83100128	0	0	-0.05691485852	0.8137071133	-8.002372742	1.0
48	28.83100128	0	0	-0.05699035153	0.8142239451	-8.007492065	1.0
49	28.83100128	0	0	-0.05719719827	0.8156972528	-8.02209568	1.0
[LeftHandIndex4]
47	23.92700005	0	0	0	0	0	1.0
48	23.92700005	0	0	0	0	0	1.0
49	23.92700005	0	0	0	0	0	1.0
[LeftHandMiddle1]
47	95.33399963	0	0	-0.9300283194	3.452686787	-17.66650009	1.0
48	95.33399963	0	0	-0.882134974	3.456402779	-16.98408127	1.0
49	95.33399963	0	0	-0.8488277197	3.255945206	-16.50383568	1.0
[LeftHandMiddle2]
47	36.98199844	0	0	-0.2679282427	1.749074817	-17.41660118	1.0
48	36.98199844	0	0	-0.2679346502	1.749088645	-17.41674423	1.0
49	36.98199844	0	0	-0.2681738734	1.749858856	-17.4246521	1.0
[LeftHandMiddle3]
47	29.50900078	0	0	-0.2994920611	1.846648455	-18.42276001	1.0
48	29.50900078	0	0	-0.2994921803	1.846662521	-18.42287827	1.0
49	29.50900078	0	0	-0.2997533083	1.8474406	-18.43092728	1.0
[LeftHandMiddle4]
47	28.3390007	0	0	0	0	0	1.0
48	28.3390007	0	0	0	0	0	1.0
49	28.3390007	0	0	0	0	0	1.0
[LeftHandRing1]
47	91.04499817	-0.4390000105	-18.65100098	-1.25459218	3.222326994	-22.0820961	1.0
48	91.04499817	-0.4390000105	-18.65100098	-1.199992299	3.28172493	-21.36766434	1.0
49	91.04499817	-0.4390000105	-18.65100098	-1.173974514	3.311369181	-21.02309799	1.0
[LeftHandRing2]
47	31.54000092	0	0	-0.3862938285	2.089121103	-20.95013809	1.0
48	31.54000092	0	0	-0.3855367601	2.087144852	-20.92938805	1.0
49	31.54000092	0	0	-0.3852930665	2.086506128	-20.92270088	1.0
[LeftHandRing3]
47	29.37700081	0	0	-0.2830249369	1.796471596	-17.90467644	1.0
48	29.37700081	0	0	-0.2823531032	1.794394612	-17.88326836	1.0
49	29.37700081	0	0	-0.2821326852	1.793718576	-17.87627411	1.0
[LeftHandRing4]
47	26.47500038	0	0	0	0	0	1.0
48	26.47500038	0	0	0	0	0	1.0
49	26.47500038	0	0	0	0	0	1.0
[LeftHandPinky1]
47	80.77799988	-4.887000084	-38.06099701	-1.758565903	4.798274994	-27.72490501	1.0
48	80.77799988	-4.887000084	-38.06099701	-1.737411141	5.356568336	-27.50869751	1.0
49	80.77799988	-4.887000084	-38.06099701	-1.722738028	5.527945042	-27.34656906	1.0
[LeftHandPinky2]
47	36	0	0	-0.2691615224	1.753018141	-17.45713806	1.0
48	36	0	0	-0.2688121796	1.751896501	-17.44561958	1.0
49	36	0	0	-0.2684871852	1.750856876	-17.43493462	1.0
[LeftHandPinky3]
47	21.14200211	0	0	-0.2423257679	1.665292025	-16.55711746	1.0
48	21.14200211	0	0	-0.241987586	1.664168358	-16.54558563	1.0
49	21.14200211	0	0	-0.2416763455	1.663122177	-16.53490257	1.0
[LeftHandPinky4]
47	19.75699997	0	0	0	0	0	1.0
48	19.75699997	0	0	0	0	0	1.0
49	19.75699997	0	0	0	0	0	1.0
[RightShoulder]
47	-45.70000076	109.4620056	-26.28000069	5.665540695	16.04404068	16.88191986	1.0
48	-45.70000076	109.4620056	-26.28000069	5.664926052	15.87743378	17.10183334	1.0
49	-45.70000076	109.4620056	-26.28000069	5.599128723	15.66415596	16.97789001	1.0
[RightArm]
47	-105.9280014	-5.248000145	-22.32099915	46.92303085	15.65485477	56.74678421	1.0
48	-105.9280014	-5.248000145	-22.32099915	43.71110153	13.95102787	58.25251389	1.0
49	-105.9280014	-5.248000145	-22.32099915	40.2270813	12.03630257	59.30479431	1.0
[RightForeArm]
47	-278.414978	0	0	-2.47555181e-06	37.5230484	2.034813861e-06	1.0
48	-278.414978	0	0	-7.164627732e-06	29.00868988	-6.257072528e-06	1.0
49	-278.414978	0	0	-7.119844213e-06	21.97457123	-7.728331184e-06	1.0
[RightHand]
47	-283.2879944	0	0.0009999999311	-10.17792511	21.52049637	15.16190338	1.0
48	-283.2879944	0	0.0009999999311	-11.37380695	18.25870514	13.34347153	1.0
49	-283.2879944	0	0.0009999999311	-13.80201435	14.70821762	10.9382782	1.0
[RightHandPinky1]
47	-80.76699829	-4.885000229	-38.06000137	-4.569783211	-6.281552315	55.85029602	1.0
48	-80.76699829	-4.885000229	-38.06000137	-4.213558197	-5.842792988	54.14133835	1.0
49	-80.76699829	-4.885000229	-38.06000137	-3.701623917	-5.469370365	49.93740845	1.0
[RightHandPinky2]
47	-36	0	0.0009999999311	-1.490315557	-3.411073446	47.34694672	1.0
48	-36	0	0.0009999999311	-1.376531243	-3.296222687	45.34241104	1.0
49	-36	0	0.0009999999311	-1.138733149	-3.018682003	40.81369019	1.0
[RightHandPinky3]
47	-21.14200211	0	0	-1.438381076	-3.362545013	46.44838715	1.0
48	-21.14200211	0	0	-1.326307535	-3.245845318	44.4424324	1.0
49	-21.14200211	0	0	-1.092729926	-2.964581251	39.91236496	1.0
[RightHandPinky4]
47	-19.75699997	0	0	0	0	0	1.0
48	-19.75699997	0	0	0	0	0	1.0
49	-19.75699997	0	0	0	0	0	1.0
[RightHandRing1]
47	-91.03599548	-0.4390000105	-18.65100098	-3.333247185	-4.289726734	49.6207962	1.0
48	-91.03599548	-0.4390000105	-18.65100098	-3.20146203	-4.101428986	48.09933853	1.0
49	-91.03599548	-0.4390000105	-18.65100098	-2.845074177	-3.87229538	43.9028511	1.0
[RightHandRing2]
47	-31.54000092	0	0	-1.721425533	-3.609879732	51.09878922	1.0
48	-31.54000092	0	0	-1.58773303	-3.492095232	48.88902664	1.0
49	-31.54000092	0	0	-1.328963757	-3.225552082	44.28443909	1.0
[RightHandRing3]
47	-29.37700081	0	0	-1.532557607	-3.449173689	48.03113556	1.0
48	-29.37700081	0	0	-1.405336976	-3.324383974	45.82144928	1.0
49	-29.37700081	0	0	-1.161280513	-3.044469833	41.21921158	1.0
[RightHandRing4]
47	-26.47500038	0	0	0	0	0	1.0
48	-26.47500038	0	0	0	0	0	1.0
49	-26.47500038	0	0	0	0	0	1.0
[RightHandMiddle1]
47	-95.32500458	0	0	-2.794036388	-3.801672935	43.38965607	1.0
48	-95.32500458	0	0	-2.663500071	-3.837656975	41.8229332	1.0
49	-95.32500458	0	0	-2.34252739	-3.563790321	37.87263107	1.0
[RightHandMiddle2]
47	-36.98199844	0	0	-1.51297009	-3.431599617	47.70583725	1.0
48	-36.98199844	0	0	-1.385906458	-3.305433273	45.48546982	1.0
49	-36.98199844	0	0	-1.141760349	-3.021670103	40.84653473	1.0
[RightHandMiddle3]
47	-29.50900078	0	0	-1.573024035	-3.48720026	48.70129395	1.0
48	-29.50900078	0	0	-1.443873286	-3.363362074	46.48241425	1.0
49	-29.50900078	0	0	-1.194927216	-3.08404541	41.8453331	1.0
[RightHandMiddle4]
47	-28.3390007	0	0.0009999999311	0	0	0	1.0
48	-28.3390007	0	0.0009999999311	0	0	0	1.0
49	-28.3390007	0	0.0009999999311	0	0	0	1.0
[RightHandIndex1]
47	-91.08300018	-5.167999744	22.60099792	0.3033079207	-1.060052395	34.88975525	1.0
48	-91.08300018	-5.167999744	22.60099792	0.1959168613	-0.9169011116	34.26147079	1.0
49	-91.08300018	-5.167999744	22.60099792	0.15649876	-0.4558472037	30.26225281	1.0
[RightHandIndex2]
47	-36.76399994	0	0	-1.500551462	-3.420283794	47.49776077	1.0
48	-36.76399994	0	0	-1.377170801	-3.296837807	45.33369827	1.0
49	-36.76399994	0	0	-1.136787653	-3.016401768	40.75669098	1.0
[RightHandIndex3]
47	-28.83100128	0	0	-0.9852057099	-2.864617825	38.11771774	1.0
48	-28.83100128	0	0	-0.8836986423	-2.722795248	35.95672607	1.0
49	-28.83100128	0	0	-0.6923648119	-2.407030821	31.38454056	1.0
[RightHandIndex4]
47	-23.92700005	0	0	0	0	0	1.0
48	-23.92700005	0	0	0	0	0	1.0
49	-23.92700005	0	0	0	0	0	1.0
[RightHandThumb1]
47	-24.64799881	-15.72700024	26.82600021	-1.658447027	-0.2891640961	-4.221339703	1.0
48	-24.64799881	-15.72700024	26.82600021	-1.658452868	-0.2891314924	-4.221331596	1.0
49	-24.64799881	-15.72700024	26.82600021	-1.658454061	-0.2891410589	-4.221333504	1.0
[RightHandThumb2]
47	-32.29800034	-18.64699936	18.64699936	20.88307762	-20.3709259	-24.55371284	1.0
48	-32.29800034	-18.64699936	18.64699936	21.72901535	-22.6424408	-24.23126221	1.0
49	-32.29800034	-18.64699936	18.64699936	22.17345238	-23.7501545	-24.18242455	1.0
[RightHandThumb3]
47	-26.52600098	-15.31399918	15.31399918	-14.4892168	-6.76755619	-11.63197327	1.0
48	-26.52600098	-15.31399918	15.31399918	-14.48420334	-6.740044594	-11.42251682	1.0
49	-26.52600098	-15.31399918	15.31399918	-14.48737907	-6.722706795	-11.37232018	1.0
[RightHandThumb4]
47	-19.54599953	-11.28499985	11.28499985	0	0	0	1.0
48	-19.54599953	-11.28499985	11.28499985	0	0	0	1.0
49	-19.54599953	-11.28499985	11.28499985	0	0	0	1.0
[LeftUpLeg]
47	82.07800293	-67.51699829	-15.99599934	-15.47926807	15.66134453	7.270631313	1.0
48	82.07800293	-67.51699829	-15.99599934	-12.9930954	15.91971397	7.368618965	1.0
49	82.07800293	-67.51699829	-15.99599934	-11.24231339	15.98420143	7.353240013	1.0
[LeftLeg]
47	0	-443.7049866	2.845999956	18.87234497	-1.16991365	3.444963932	1.0
48	0	-443.7049866	2.845999956	16.39239693	-0.2458291203	3.868434429	1.0
49	0	-443.7049866	2.845999956	14.60137177	0.5772144794	4.194333076	1.0
[LeftFoot]
47	0	-444.2789917	-29.8219986	-0.5518299341	0.6646690369	-5.739525795	1.0
48	0	-444.2789917	-29.8219986	0.2656417191	0.6589562893	-6.033165455	1.0
49	0	-444.2789917	-29.8219986	0.8238568306	0.6674025655	-6.300726891	1.0
[LeftToeBase]
47	0	-87.28699493	107.1060028	-4.928522587	1.271226893e-06	-6.996860975e-07	1.0
48	0	-87.28699493	107.1060028	-4.928524017	8.36087338e-07	-9.582938887e-09	1.0
49	0	-87.28699493	107.1060028	-4.92852354	1.098719849e-06	2.132548786e-07	1.0
[RightUpLeg]
47	-82.07800293	-67.51699829	-15.99599934	-6.703287601	-9.536551476	4.673816204	1.0
48	-82.07800293	-67.51699829	-15.99599934	-4.380488873	-9.694360733	4.353566647	1.0
49	-82.07800293	-67.51699829	-15.99599934	-2.791151524	-9.897270203	3.937510252	1.0
[RightLeg]
47	0	-443.7049866	2.861999989	15.58890724	-8.760795593	-5.876459122	1.0
48	0	-443.7049866	2.861999989	12.603158	-9.01243782	-5.662531853	1.0
49	0	-443.7049866	2.861999989	10.56668663	-9.197098732	-5.283391953	1.0
[RightFoot]
47	0	-444.2770081	-29.83799934	-6.189186096	-4.723051071	4.36837101	1.0
48	0	-444.2770081	-29.83799934	-4.884252071	-3.473163366	4.083548069	1.0
49	0	-444.2770081	-29.83799934	-4.082624435	-2.444654703	3.824535847	1.0
[RightToeBase]
47	0	-87.28699493	107.1060028	-7.282873154	5.690762464e-06	-7.899602679e-07	1.0
48	0	-87.28699493	107.1060028	-7.282873154	-4.691688815e-08	-1.319340299e-07	1.0
49	0	-87.28699493	107.1060028	-7.282874107	-1.90132323e-06	2.420686371e-07	1.0
[EndOfFile]
